<?xml version="1.0" encoding="utf-8"?>
<!-- Generator: Adobe Illustrator 21.0.0, SVG Export Plug-In . SVG Version: 6.00 Build 0)  -->
<svg version="1.1" xmlns="http://www.w3.org/2000/svg" xmlns:xlink="http://www.w3.org/1999/xlink" x="0px" y="0px"
	 viewBox="0 0 512 512" style="enable-background:new 0 0 512 512;" xml:space="preserve">
<style type="text/css">
	.st0{opacity:0.66;fill:#FF0000;}
	.st1{opacity:0.66;fill:#01A0C6;}
	.st2{stroke:#2E58A6;stroke-miterlimit:10;}
</style>
<g id="Layer_3">
</g>
<g id="Layer_4">
	<path class="st0" d="M363.7,97.7H84.1c-46,0-83.3,37.3-83.3,83.3v146.8c0,46.6,37.8,84.4,84.4,84.4h277.5
		c46.6,0,84.4-37.8,84.4-84.4V181C447,135,409.7,97.7,363.7,97.7z M196.7,364l9.1-233.4l187.1,110.3L196.7,364z"/>
	<path class="st1" d="M427.2,98.8H147.6c-46,0-83.3,37.3-83.3,83.3v146.8c0,46.6,37.8,84.4,84.4,84.4h277.5
		c46.6,0,84.4-37.8,84.4-84.4V182.1C510.5,136.1,473.2,98.8,427.2,98.8z M201.3,337.8L199.8,172l159.3,83.9L201.3,337.8z"/>
</g>
<g id="Layer_2">
	<path class="st2" d="M396.4,98.9H116.8c-46,0-83.3,37.3-83.3,83.3v146.8c0,46.6,37.8,84.4,84.4,84.4h277.5
		c46.6,0,84.4-37.8,84.4-84.4V182.3C479.7,136.3,442.4,98.9,396.4,98.9z M211,323V190.1l117.3,66L211,323z"/>
</g>
</svg>
